<?xml version="1.0" encoding="utf-8"?>
<!-- Generator: Adobe Illustrator 16.0.3, SVG Export Plug-In . SVG Version: 6.00 Build 0)  -->
<!DOCTYPE svg PUBLIC "-//W3C//DTD SVG 1.1//EN" "http://www.w3.org/Graphics/SVG/1.1/DTD/svg11.dtd">
<svg version="1.1" id="Layer_1" xmlns="http://www.w3.org/2000/svg" xmlns:xlink="http://www.w3.org/1999/xlink" x="0px" y="0px"
	 width="83px" height="20px" viewBox="0 0 83 20" enable-background="new 0 0 83 20" xml:space="preserve">
<g>
	<g>
		<path fill="#ABD053" d="M13.336,18.153c-1.407-4.554-4.157-4.506-4.79-4.43H5.291c0.604-0.924,1.023-1.994,1.271-2.74
			c2.063-0.089,3.717-1.781,3.717-3.866c0-0.666-0.184-1.284-0.48-1.832l0.789-0.51c0.427-0.275,0.549-0.845,0.274-1.272
			c-0.276-0.427-0.845-0.55-1.271-0.274L8.557,3.896C7.939,3.481,7.198,3.237,6.398,3.237c-2.141,0-3.881,1.741-3.881,3.88
			c0,1.545,0.914,2.871,2.223,3.495c-0.579,1.617-1.486,3.126-2.118,3.111H0.919C0.411,13.724,0,14.135,0,14.642
			c0,0.508,0.411,0.921,0.919,0.921h7.752l0.096-0.015c0.071-0.013,1.768-0.228,2.811,3.148c0.15,0.485,0.665,0.757,1.15,0.606
			C13.214,19.153,13.486,18.639,13.336,18.153z M4.355,7.118c0-1.125,0.917-2.041,2.042-2.041s2.042,0.916,2.042,2.041
			c0,1.127-0.916,2.042-2.042,2.042c-0.048,0-0.292-0.004-0.564-0.089C4.983,8.825,4.355,8.047,4.355,7.118z"/>
		<g>
			<path fill-rule="evenodd" clip-rule="evenodd" d="M12.383,8.824v-8.22c0-0.147,0.074-0.221,0.221-0.221h1.063
				c0.147,0,0.221,0.074,0.221,0.221v8.131c0,0.581,0.271,0.871,0.811,0.871h0.443c0.148,0,0.221,0.073,0.221,0.222v0.841
				c0,0.147-0.073,0.222-0.221,0.222h-0.708c-0.668,0-1.185-0.207-1.549-0.621C12.549,9.896,12.383,9.415,12.383,8.824z"/>
			<path fill-rule="evenodd" clip-rule="evenodd" d="M19.757,10.979c-0.915,0-1.663-0.3-2.244-0.901
				c-0.581-0.6-0.87-1.579-0.87-2.936c0-1.348,0.29-2.322,0.87-2.922s1.329-0.9,2.244-0.9c0.925,0,1.678,0.3,2.258,0.9
				s0.87,1.574,0.87,2.922c0,1.357-0.29,2.336-0.87,2.936C21.435,10.68,20.682,10.979,19.757,10.979z M19.757,4.663
				c-0.649,0-1.097,0.271-1.344,0.812c-0.177,0.374-0.265,0.93-0.265,1.667c0,1.662,0.536,2.494,1.608,2.494
				c1.081,0,1.623-0.832,1.623-2.494c0-0.748-0.089-1.309-0.266-1.682C20.868,4.929,20.416,4.663,19.757,4.663z"/>
			<path fill-rule="evenodd" clip-rule="evenodd" d="M28.386,10.979c-0.723,0-1.378-0.306-1.965-0.916v0.605
				c0,0.147-0.075,0.222-0.226,0.222h-1.054c-0.15,0-0.226-0.074-0.226-0.222V0.604c0-0.147,0.074-0.221,0.222-0.221H26.2
				c0.147,0,0.221,0.074,0.221,0.221V4.19c0.581-0.581,1.235-0.871,1.963-0.871c1.042,0,1.776,0.398,2.198,1.195
				c0.306,0.591,0.458,1.466,0.458,2.627c0,1.17-0.156,2.051-0.469,2.641C30.16,10.58,29.432,10.979,28.386,10.979z M26.421,7.142
				c0,0.787,0.093,1.367,0.28,1.741c0.236,0.502,0.664,0.753,1.284,0.753c0.62,0,1.047-0.251,1.284-0.753
				c0.178-0.374,0.266-0.954,0.266-1.741c0-0.787-0.088-1.368-0.266-1.741c-0.236-0.492-0.664-0.738-1.284-0.738
				c-0.62,0-1.048,0.246-1.284,0.738C26.515,5.774,26.421,6.355,26.421,7.142z"/>
			<path fill-rule="evenodd" clip-rule="evenodd" d="M37.093,10.195c-0.596,0.522-1.256,0.784-1.979,0.784
				c-0.782,0-1.398-0.183-1.847-0.546c-0.489-0.395-0.733-0.975-0.733-1.742c0-0.649,0.221-1.171,0.665-1.565
				c0.442-0.394,1.082-0.59,1.917-0.59h1.978V6.006c0-0.935-0.546-1.402-1.638-1.402c-0.649,0-1.146,0.182-1.49,0.546
				c-0.04,0.039-0.089,0.059-0.148,0.059c-0.158,0-0.345-0.103-0.561-0.31c-0.217-0.207-0.324-0.384-0.324-0.531
				c0-0.059,0.015-0.103,0.044-0.133c0.581-0.61,1.426-0.915,2.538-0.915c2.056,0,3.084,0.856,3.084,2.568v4.781
				c0,0.147-0.076,0.222-0.226,0.222h-1.054c-0.151,0-0.226-0.074-0.226-0.222V10.195z M35.337,7.585
				c-0.896,0-1.343,0.359-1.343,1.077c0,0.708,0.458,1.063,1.373,1.063c0.6,0,1.037-0.11,1.313-0.333
				c0.275-0.221,0.413-0.622,0.413-1.203V7.585H35.337z"/>
			<path fill-rule="evenodd" clip-rule="evenodd" d="M40.85,8.824v-8.22c0-0.147,0.073-0.221,0.221-0.221h1.063
				c0.147,0,0.221,0.074,0.221,0.221v8.131c0,0.581,0.271,0.871,0.812,0.871h0.443c0.147,0,0.222,0.073,0.222,0.222v0.841
				c0,0.147-0.074,0.222-0.222,0.222H42.9c-0.669,0-1.186-0.207-1.549-0.621C41.018,9.896,40.85,9.415,40.85,8.824z"/>
			<path fill-rule="evenodd" clip-rule="evenodd" d="M49.743,10.063c-0.587,0.61-1.241,0.916-1.965,0.916
				c-1.046,0-1.774-0.399-2.185-1.196c-0.313-0.59-0.47-1.471-0.47-2.641c0-1.161,0.157-2.036,0.473-2.627
				C46.01,3.718,46.738,3.32,47.78,3.32c0.729,0,1.383,0.29,1.963,0.871V0.604c0-0.147,0.073-0.221,0.222-0.221h1.063
				c0.147,0,0.221,0.074,0.221,0.221v10.064c0,0.147-0.075,0.222-0.225,0.222H49.97c-0.151,0-0.227-0.074-0.227-0.222V10.063z
				 M46.629,7.142c0,0.787,0.095,1.367,0.281,1.741c0.236,0.502,0.664,0.753,1.283,0.753c0.62,0,1.049-0.251,1.284-0.753
				c0.177-0.374,0.266-0.954,0.266-1.741c0-0.787-0.089-1.368-0.266-1.741c-0.235-0.492-0.664-0.738-1.284-0.738
				c-0.619,0-1.047,0.246-1.283,0.738C46.724,5.774,46.629,6.355,46.629,7.142z"/>
			<path fill-rule="evenodd" clip-rule="evenodd" d="M53.405,0.974c0-0.266,0.097-0.495,0.288-0.686C53.885,0.096,54.113,0,54.38,0
				c0.266,0,0.494,0.096,0.686,0.288c0.191,0.191,0.288,0.42,0.288,0.686s-0.097,0.494-0.288,0.686s-0.42,0.288-0.686,0.288
				c-0.267,0-0.495-0.096-0.687-0.288S53.405,1.239,53.405,0.974z M53.627,3.63c0-0.147,0.074-0.221,0.221-0.221h1.063
				c0.147,0,0.221,0.074,0.221,0.221v7.039c0,0.147-0.073,0.222-0.221,0.222h-1.063c-0.146,0-0.221-0.074-0.221-0.222V3.63z"/>
			<path fill-rule="evenodd" clip-rule="evenodd" d="M56.987,9.769c0.011-0.068,0.025-0.112,0.045-0.133l3.675-4.885h-3.291
				c-0.147,0-0.222-0.073-0.222-0.221v-0.9c0-0.147,0.074-0.221,0.222-0.221h4.929c0.147,0,0.222,0.074,0.222,0.221v0.9
				c-0.011,0.069-0.025,0.114-0.045,0.133l-3.703,4.884h3.526c0.147,0,0.222,0.074,0.222,0.222v0.9c0,0.147-0.074,0.222-0.222,0.222
				h-5.136c-0.147,0-0.222-0.074-0.222-0.222V9.769z"/>
			<path fill-rule="evenodd" clip-rule="evenodd" d="M68.455,10.195c-0.597,0.522-1.256,0.784-1.979,0.784
				c-0.782,0-1.398-0.183-1.849-0.546c-0.487-0.395-0.733-0.975-0.733-1.742c0-0.649,0.223-1.171,0.665-1.565s1.082-0.59,1.919-0.59
				h1.977V6.006c0-0.935-0.546-1.402-1.638-1.402c-0.649,0-1.146,0.182-1.491,0.546c-0.039,0.039-0.088,0.059-0.147,0.059
				c-0.157,0-0.344-0.103-0.561-0.31c-0.216-0.207-0.324-0.384-0.324-0.531c0-0.059,0.015-0.103,0.045-0.133
				c0.579-0.61,1.427-0.915,2.537-0.915c2.057,0,3.085,0.856,3.085,2.568v4.781c0,0.147-0.075,0.222-0.227,0.222h-1.054
				c-0.149,0-0.226-0.074-0.226-0.222V10.195z M66.699,7.585c-0.896,0-1.343,0.359-1.343,1.077c0,0.708,0.457,1.063,1.373,1.063
				c0.6,0,1.037-0.11,1.313-0.333c0.276-0.221,0.413-0.622,0.413-1.203V7.585H66.699z"/>
			<path fill-rule="evenodd" clip-rule="evenodd" d="M72.049,0.974c0-0.266,0.097-0.495,0.288-0.686C72.529,0.096,72.758,0,73.023,0
				s0.494,0.096,0.686,0.288c0.192,0.191,0.288,0.42,0.288,0.686s-0.096,0.494-0.288,0.686c-0.191,0.192-0.42,0.288-0.686,0.288
				s-0.494-0.096-0.687-0.288C72.146,1.468,72.049,1.239,72.049,0.974z M71.016,13.945c-0.146,0-0.221-0.073-0.221-0.222v-0.841
				c0-0.148,0.074-0.223,0.221-0.223h0.443c0.541,0,0.812-0.289,0.812-0.87V3.63c0-0.147,0.073-0.221,0.222-0.221h1.063
				c0.147,0,0.221,0.074,0.221,0.221v8.249c0,0.601-0.161,1.082-0.486,1.446c-0.365,0.413-0.886,0.62-1.564,0.62H71.016z"/>
			<path fill-rule="evenodd" clip-rule="evenodd" d="M80.723,6.331c0-0.561-0.148-0.984-0.447-1.269
				c-0.258-0.266-0.616-0.399-1.072-0.399c-0.457,0-0.824,0.133-1.103,0.399c-0.308,0.295-0.462,0.718-0.462,1.269v4.338
				c0,0.147-0.073,0.222-0.218,0.222H76.38c-0.145,0-0.217-0.074-0.217-0.222V3.63c0-0.147,0.073-0.221,0.222-0.221h1.032
				c0.147,0,0.222,0.074,0.222,0.221V4.19c0.63-0.581,1.294-0.871,1.993-0.871c0.836,0,1.484,0.256,1.946,0.768
				c0.434,0.502,0.65,1.175,0.65,2.021v4.56c0,0.147-0.074,0.222-0.223,0.222h-1.063c-0.147,0-0.221-0.074-0.221-0.222V6.331z"/>
		</g>
	</g>
</g>
</svg>
