<?xml version="1.0" encoding="utf-8"?>
<!-- Generator: Adobe Illustrator 20.1.0, SVG Export Plug-In . SVG Version: 6.00 Build 0)  -->
<svg version="1.1" id="Layer_1" xmlns="http://www.w3.org/2000/svg" xmlns:xlink="http://www.w3.org/1999/xlink" x="0px" y="0px"
	 width="20px" height="20px" viewBox="0 0 20 20" style="enable-background:new 0 0 20 20;" xml:space="preserve">
<style type="text/css">
	.st0{fill:#FFFFFF;}
</style>
<g>
	<path class="st0" d="M20,18.6l-4.8-4.8c1.2-1.5,1.9-3.3,1.9-5.3c0-4.7-3.8-8.4-8.4-8.4C4,0,0.2,3.8,0.2,8.5s3.8,8.4,8.4,8.4
		c2,0,3.9-0.7,5.3-1.9l4.8,4.8c0.3,0.3,0.9,0.3,1.2,0C20.3,19.5,20.3,19,20,18.6z M8.7,15.2c-3.7,0-6.8-3-6.8-6.8s3-6.8,6.8-6.8
		c3.7,0,6.8,3,6.8,6.8S12.4,15.2,8.7,15.2z"/>
</g>
</svg>
