<?xml version="1.0" encoding="utf-8"?>
<!-- Generator: Adobe Illustrator 16.0.0, SVG Export Plug-In . SVG Version: 6.00 Build 0)  -->
<!DOCTYPE svg PUBLIC "-//W3C//DTD SVG 1.1//EN" "http://www.w3.org/Graphics/SVG/1.1/DTD/svg11.dtd">
<svg version="1.1" id="Layer_1" xmlns="http://www.w3.org/2000/svg" xmlns:xlink="http://www.w3.org/1999/xlink" x="0px" y="0px"
	 width="20px" height="20px" viewBox="410.945 287.64 20 20" enable-background="new 410.945 287.64 20 20" xml:space="preserve">
<g>
	<path fill="#7F7F7F" d="M430.7,306.219l-4.808-4.808c1.191-1.453,1.91-3.314,1.91-5.343c0-4.653-3.775-8.429-8.429-8.429
		c-4.657,0-8.429,3.775-8.429,8.429s3.771,8.429,8.429,8.429c2.028,0,3.886-0.715,5.339-1.906l4.808,4.804
		c0.327,0.327,0.854,0.327,1.18,0C431.027,307.073,431.027,306.542,430.7,306.219z M419.374,302.82
		c-3.727,0-6.755-3.028-6.755-6.751s3.028-6.755,6.755-6.755c3.723,0,6.755,3.032,6.755,6.755S423.096,302.82,419.374,302.82z"/>
</g>
</svg>
